{
  "accessors": [
    {
      "bufferView": 1,
      "componentType": 5126,
      "count": 65532,
      "max": [
        2.91845703125,
        2.0206971168518066,
        5.09375
      ],
      "min": [
        -2.91845703125,
        -2.2836110591888428,
        -1.4395040273666382
      ],
      "type": "VEC3"
    },
    {
      "bufferView": 1,
      "byteOffset": 786384,
      "componentType": 5126,
      "count": 65532,
      "max": [
        0.9999945163726807,
        0.9994486570358276,
        0.9998897314071655
      ],
      "min": [
        -0.9999945163726807,
        -0.999997615814209,
        -0.9999978542327881
      ],
      "type": "VEC3"
    },
    {
      "bufferView": 0,
      "componentType": 5125,
      "count": 346758,
      "type": "SCALAR"
    },
    {
      "bufferView": 1,
      "byteOffset": 1572768,
      "componentType": 5126,
      "count": 65532,
      "max": [
        3.123997926712036,
        2.252434015274048,
        5.092963218688965
      ],
      "min": [
        -3.097804069519043,
        -2.2836110591888428,
        -1.4475950002670288
      ],
      "type": "VEC3"
    },
    {
      "bufferView": 1,
      "byteOffset": 2359152,
      "componentType": 5126,
      "count": 65532,
      "max": [
        0.999996542930603,
        0.9999711513519287,
        0.9998823404312134
      ],
      "min": [
        -0.9999769926071167,
        -0.9999947547912598,
        -0.9999939203262329
      ],
      "type": "VEC3"
    },
    {
      "bufferView": 0,
      "byteOffset": 1387032,
      "componentType": 5125,
      "count": 319446,
      "type": "SCALAR"
    },
    {
      "bufferView": 1,
      "byteOffset": 3145536,
      "componentType": 5126,
      "count": 65532,
      "max": [
        3.112267017364502,
        2.2336959838867188,
        4.979444980621338
      ],
      "min": [
        -2.977200984954834,
        -2.6994760036468506,
        -2.592895984649658
      ],
      "type": "VEC3"
    },
    {
      "bufferView": 1,
      "byteOffset": 3931920,
      "componentType": 5126,
      "count": 65532,
      "max": [
        0.9999790191650391,
        0.9999939203262329,
        0.9998823404312134
      ],
      "min": [
        -0.9999812841415405,
        -0.9999983310699463,
        -0.9999908208847046
      ],
      "type": "VEC3"
    },
    {
      "bufferView": 0,
      "byteOffset": 2664816,
      "componentType": 5125,
      "count": 373416,
      "type": "SCALAR"
    },
    {
      "bufferView": 1,
      "byteOffset": 4718304,
      "componentType": 5126,
      "count": 31290,
      "max": [
        3.030137062072754,
        2.0864529609680176,
        4.204613208770752
      ],
      "min": [
        -2.9644739627838135,
        -1.595420002937317,
        -1.5182429552078247
      ],
      "type": "VEC3"
    },
    {
      "bufferView": 1,
      "byteOffset": 5093784,
      "componentType": 5126,
      "count": 31290,
      "max": [
        0.9998064637184143,
        0.9997654557228088,
        0.9999960660934448
      ],
      "min": [
        -0.9999812841415405,
        -0.9999945163726807,
        -0.9999908208847046
      ],
      "type": "VEC3"
    },
    {
      "bufferView": 0,
      "byteOffset": 4158480,
      "componentType": 5125,
      "count": 169212,
      "type": "SCALAR"
    }
  ],
  "asset": {
    "extras": {
      "author": "Josep Mesquida Sampol (https://sketchfab.com/josepm1998)",
      "license": "CC-BY-4.0 (http://creativecommons.org/licenses/by/4.0/)",
      "source": "https://sketchfab.com/3d-models/blacksad-bust-d918a4ae58fc4af29eceeed8fd17f494",
      "title": "Blacksad bust"
    },
    "generator": "Sketchfab-12.68.0",
    "version": "2.0"
  },
  "bufferViews": [
    {
      "buffer": 0,
      "byteLength": 4835328,
      "name": "floatBufferViews",
      "target": 34963
    },
    {
      "buffer": 0,
      "byteLength": 5469264,
      "byteOffset": 4835328,
      "byteStride": 12,
      "name": "floatBufferViews",
      "target": 34962
    }
  ],
  "buffers": [
    {
      "byteLength": 10304592,
      "uri": "scene.bin"
    }
  ],
  "materials": [
    {
      "doubleSided": true,
      "name": "None",
      "pbrMetallicRoughness": {
        "metallicFactor": 0.0,
        "roughnessFactor": 0.6
      }
    }
  ],
  "meshes": [
    {
      "name": "Object_0",
      "primitives": [
        {
          "attributes": {
            "NORMAL": 1,
            "POSITION": 0
          },
          "indices": 2,
          "material": 0,
          "mode": 4
        }
      ]
    },
    {
      "name": "Object_1",
      "primitives": [
        {
          "attributes": {
            "NORMAL": 4,
            "POSITION": 3
          },
          "indices": 5,
          "material": 0,
          "mode": 4
        }
      ]
    },
    {
      "name": "Object_2",
      "primitives": [
        {
          "attributes": {
            "NORMAL": 7,
            "POSITION": 6
          },
          "indices": 8,
          "material": 0,
          "mode": 4
        }
      ]
    },
    {
      "name": "Object_3",
      "primitives": [
        {
          "attributes": {
            "NORMAL": 10,
            "POSITION": 9
          },
          "indices": 11,
          "material": 0,
          "mode": 4
        }
      ]
    }
  ],
  "nodes": [
    {
      "children": [
        1
      ],
      "matrix": [
        0.24505087733268738,
        0.0,
        0.0,
        0.0,
        0.0,
        5.441222524386888e-17,
        -0.24505087733268738,
        0.0,
        0.0,
        0.24505087733268738,
        5.441222524386888e-17,
        0.0,
        0.0,
        0.0,
        0.0,
        1.0
      ],
      "name": "Sketchfab_model"
    },
    {
      "children": [
        2,
        3,
        4,
        5
      ],
      "name": "Blacksad.obj.cleaner.materialmerger.gles"
    },
    {
      "mesh": 0,
      "name": "Object_2"
    },
    {
      "mesh": 1,
      "name": "Object_3"
    },
    {
      "mesh": 2,
      "name": "Object_4"
    },
    {
      "mesh": 3,
      "name": "Object_5"
    }
  ],
  "scene": 0,
  "scenes": [
    {
      "name": "Sketchfab_Scene",
      "nodes": [
        0
      ]
    }
  ]
}
